<svg width="2000" height="2000" version="1.1" xmlns="http://www.w3.org/2000/svg" desc="Created with imagetracer.js version 1.2.6" ><path fill="rgb(5,6,2)" stroke="rgb(5,6,2)" stroke-width="1" opacity="1" d="M 389.5 882 L 583.5 882 Q 593.6 884.4 599 891.5 L 603 898.5 L 605 907.5 L 605 976.5 L 603 986.5 L 596.5 996 L 588.5 1001 L 580.5 1003 L 515 1003.5 Q 550.6 1012.9 572 1036.5 Q 588.7 1053.8 598 1078.5 L 603 1097.5 L 604 1118 L 369.5 1118 L 369 1117.5 L 369 1102.5 Q 377.5 1054.5 408.5 1029 Q 421.2 1017.7 437.5 1010 L 458 1003.5 L 392.5 1003 L 384.5 1001 L 376 996 L 369 983.5 L 369 901.5 Q 371.5 893 377.5 888 L 389.5 882 Z " /><path fill="rgb(5,6,2)" stroke="rgb(5,6,2)" stroke-width="1" opacity="1" d="M 664 910 L 710.5 910 L 711 912.5 L 761 1076.5 L 761 1080 Q 764.3 1081.3 763 1076.5 L 812 910 L 858.5 910 L 859 910.5 L 859 1092 L 831.5 1092 L 831 1088.5 L 832 1087.5 L 833 923.5 L 832 923.5 L 789 1068.5 L 782 1088.5 L 782 1092 L 741.5 1092 L 741 1089.5 L 690.5 923 L 690 968.5 L 691 969.5 L 691 1092 L 664.5 1092 L 664 1091.5 L 664 910 Z " /><path fill="rgb(5,6,2)" stroke="rgb(5,6,2)" stroke-width="1" opacity="1" d="M 897 910 L 972.5 910 L 973 910.5 L 973 932.5 L 971.5 934 L 948 934 L 948 1068.5 L 948.5 1069 L 973 1069 L 973 1092 L 897.5 1092 L 897 1091.5 L 897 1069 L 921.5 1069 L 922 1068.5 L 922 934 L 897 934 L 897 910 Z " /><path fill="rgb(5,6,2)" stroke="rgb(5,6,2)" stroke-width="1" opacity="1" d="M 1365.5 959 L 1366.5 960 L 1378.5 960 L 1393.5 964 Q 1406.2 968.8 1414 978.5 Q 1423.7 989.3 1428 1005.5 L 1430 1016.5 L 1430 1038.5 L 1427 1053.5 L 1423 1063.5 Q 1417.2 1075.2 1407.5 1083 Q 1397.4 1090.9 1382.5 1094 Q 1377.7 1092.8 1376.5 1095 L 1352.5 1095 Q 1326 1090.5 1313 1072.5 Q 1298.9 1054.1 1300 1020.5 L 1301 1019.5 L 1301 1011.5 L 1307 992.5 Q 1312.8 980.8 1322.5 973 Q 1331.1 965.6 1343.5 962 L 1352.5 960 L 1364.5 960 L 1365.5 959 Z M 1359 981 L 1348 984 L 1343 987 Q 1334 993 1330 1004 L 1327 1015 L 1327 1024 L 1326 1025 L 1327 1039 L 1329 1048 L 1335 1060 Q 1342 1069 1356 1072 L 1376 1072 L 1390 1066 Q 1396 1060 1400 1052 L 1404 1034 L 1403 1013 L 1399 1000 L 1395 994 L 1384 984 L 1372 981 L 1359 981 Z " /><path fill="rgb(5,6,2)" stroke="rgb(5,6,2)" stroke-width="1" opacity="1" d="M 1006 960 L 1028.5 960 L 1030 961.5 L 1032 980.5 L 1034.5 991 Q 1039.2 977.2 1049.5 969 L 1066.5 961 L 1088.5 960 L 1103.5 964 L 1115 972.5 L 1123 984.5 L 1128 1005.5 L 1128 1016.5 L 1129 1017.5 L 1129 1092 L 1103 1092 L 1103 1027.5 L 1102 1026.5 L 1102 1013.5 L 1100 1004.5 Q 1097.6 994.4 1090.5 989 Q 1081.4 981.6 1062.5 984 Q 1050.5 986.5 1044 994.5 L 1038 1004.5 L 1034 1021.5 L 1034 1092 L 1006.5 1092 L 1006 1091.5 L 1006 960 Z " /><path fill="rgb(5,6,2)" stroke="rgb(5,6,2)" stroke-width="1" opacity="1" d="M 1195.5 960 L 1211.5 960 L 1221.5 962 Q 1233.7 966.3 1241 975.5 L 1249.5 990 L 1250 960 L 1277.5 960 L 1278 960.5 L 1278 1119.5 L 1275 1131.5 L 1266.5 1143 L 1261.5 1146 L 1248.5 1149 L 1189 1149 L 1189 1123 L 1251 1123 L 1251 1066.5 L 1249 1067.5 Q 1244.5 1078.5 1235.5 1085 L 1224.5 1092 L 1214.5 1095 L 1204.5 1095 L 1203.5 1096 L 1202.5 1095 L 1192.5 1095 L 1181.5 1092 Q 1168.9 1086.6 1161 1076.5 L 1153 1062.5 L 1149 1048.5 Q 1150.5 1043 1148 1041.5 L 1148 1013.5 L 1151 998.5 L 1154 990.5 Q 1158.6 979.1 1167.5 972 L 1180.5 964 L 1195.5 960 Z M 1210 984 Q 1208 987 1202 985 L 1190 990 L 1180 1001 L 1177 1007 L 1174 1019 Q 1172 1046 1183 1061 Q 1190 1070 1204 1072 Q 1225 1074 1236 1065 L 1246 1052 L 1250 1036 Q 1252 1011 1242 998 Q 1233 983 1210 984 Z " /><path fill="rgb(5,6,2)" stroke="rgb(5,6,2)" stroke-width="1" opacity="1" d="M 1503.5 960 L 1527.5 960 L 1541.5 963 Q 1556.9 968.6 1566 980.5 Q 1574.2 990.2 1578 1004.5 L 1580 1014.5 L 1581 1029.5 L 1580 1030.5 L 1579 1046.5 L 1574 1062.5 Q 1567.7 1075.7 1556.5 1084 L 1546.5 1090 L 1537.5 1093 L 1515.5 1096 L 1514.5 1095 L 1503.5 1095 L 1487.5 1091 Q 1473.8 1085.2 1465 1074.5 L 1457 1061.5 L 1452 1046.5 Q 1453.5 1041 1451 1039.5 L 1451 1014.5 L 1457 993.5 L 1469.5 976 Q 1478.2 967.7 1490.5 963 L 1503.5 960 Z M 1510 981 L 1501 983 L 1492 988 L 1482 1000 L 1477 1018 Q 1475 1048 1488 1063 Q 1494 1070 1506 1072 L 1526 1072 L 1539 1067 L 1548 1057 L 1554 1038 L 1554 1017 Q 1552 1015 1553 1011 L 1547 996 Q 1542 987 1532 983 L 1523 981 L 1510 981 Z " /><path fill="rgb(204,252,82)" stroke="rgb(204,252,82)" stroke-width="1" opacity="1" d="M 392.5 881 L 581 881.5 L 392.5 882 L 392.5 881 Z " /><path fill="rgb(204,252,82)" stroke="rgb(204,252,82)" stroke-width="1" opacity="1" d="M 380.5 885 L 378.5 888 L 380.5 885 Z " /><path fill="rgb(204,252,82)" stroke="rgb(204,252,82)" stroke-width="1" opacity="1" d="M 592.5 885 L 594.5 888 L 592.5 885 Z " /><path fill="rgb(204,252,82)" stroke="rgb(204,252,82)" stroke-width="1" opacity="1" d="M 376.5 888 L 374.5 891 L 376.5 888 Z " /><path fill="rgb(204,252,82)" stroke="rgb(204,252,82)" stroke-width="1" opacity="1" d="M 596.5 888 L 598.5 891 L 596.5 888 Z " /><path fill="rgb(204,252,82)" stroke="rgb(204,252,82)" stroke-width="1" opacity="1" d="M 373.5 892 L 372.5 894 L 373.5 892 Z " /><path fill="rgb(204,252,82)" stroke="rgb(204,252,82)" stroke-width="1" opacity="1" d="M 599.5 892 L 600.5 894 L 599.5 892 Z " /><path fill="rgb(204,252,82)" stroke="rgb(204,252,82)" stroke-width="1" opacity="1" d="M 368.5 902 L 369 981.5 L 368 981.5 L 368.5 902 Z " /><path fill="rgb(204,252,82)" stroke="rgb(204,252,82)" stroke-width="1" opacity="1" d="M 604.5 902 L 605 906.5 L 604 906.5 L 604.5 902 Z " /><path fill="rgb(204,252,82)" stroke="rgb(204,252,82)" stroke-width="1" opacity="1" d="M 663.5 910 L 664 921.5 L 663 921.5 L 663.5 910 Z " /><path fill="rgb(204,252,82)" stroke="rgb(204,252,82)" stroke-width="1" opacity="1" d="M 896.5 910 L 897 933.5 L 896 933.5 L 896.5 910 Z " /><path fill="rgb(204,252,82)" stroke="rgb(204,252,82)" stroke-width="1" opacity="1" d="M 690.5 923 L 692 926.5 L 691 927.5 L 690.5 969 L 690.5 923 Z " /><path fill="rgb(204,252,82)" stroke="rgb(204,252,82)" stroke-width="1" opacity="1" d="M 663.5 925 L 664 1073.5 L 663 1073.5 L 663.5 925 Z " /><path fill="rgb(204,252,82)" stroke="rgb(204,252,82)" stroke-width="1" opacity="1" d="M 921.5 934 L 922 1068.5 L 921 1068.5 L 921.5 934 Z " /><path fill="rgb(204,252,82)" stroke="rgb(204,252,82)" stroke-width="1" opacity="1" d="M 948.5 934 L 949 1068.5 L 948 1068.5 L 948.5 934 Z " /><path fill="rgb(204,252,82)" stroke="rgb(204,252,82)" stroke-width="1" opacity="1" d="M 832.5 937 L 833 985.5 L 832 985.5 L 832.5 937 Z " /><path fill="rgb(204,252,82)" stroke="rgb(204,252,82)" stroke-width="1" opacity="1" d="M 1356.5 959 L 1365 959.5 L 1356.5 960 L 1356.5 959 Z " /><path fill="rgb(204,252,82)" stroke="rgb(204,252,82)" stroke-width="1" opacity="1" d="M 1366.5 959 L 1375 959.5 L 1366.5 960 L 1366.5 959 Z " /><path fill="rgb(204,252,82)" stroke="rgb(204,252,82)" stroke-width="1" opacity="1" d="M 1506.5 959 L 1523 959.5 L 1506.5 960 L 1506.5 959 Z " /><path fill="rgb(204,252,82)" stroke="rgb(204,252,82)" stroke-width="1" opacity="1" d="M 1069.5 960 L 1072 960.5 L 1069.5 961 L 1069.5 960 Z " /><path fill="rgb(204,252,82)" stroke="rgb(204,252,82)" stroke-width="1" opacity="1" d="M 1089.5 960 L 1093 960.5 L 1089.5 961 L 1089.5 960 Z " /><path fill="rgb(204,252,82)" stroke="rgb(204,252,82)" stroke-width="1" opacity="1" d="M 1192.5 960 L 1195 960.5 L 1192.5 961 L 1192.5 960 Z " /><path fill="rgb(204,252,82)" stroke="rgb(204,252,82)" stroke-width="1" opacity="1" d="M 1212.5 960 L 1216 960.5 L 1212.5 961 L 1212.5 960 Z " /><path fill="rgb(204,252,82)" stroke="rgb(204,252,82)" stroke-width="1" opacity="1" d="M 1278.5 960 L 1279 1114.5 L 1278 1114.5 L 1278.5 960 Z " /><path fill="rgb(204,252,82)" stroke="rgb(204,252,82)" stroke-width="1" opacity="1" d="M 1500.5 960 L 1503 960.5 L 1500.5 961 L 1500.5 960 Z " /><path fill="rgb(204,252,82)" stroke="rgb(204,252,82)" stroke-width="1" opacity="1" d="M 1528.5 960 L 1531 960.5 L 1528.5 961 L 1528.5 960 Z " /><path fill="rgb(204,252,82)" stroke="rgb(204,252,82)" stroke-width="1" opacity="1" d="M 1186.5 961 L 1189 961.5 L 1186.5 962 L 1186.5 961 Z " /><path fill="rgb(204,252,82)" stroke="rgb(204,252,82)" stroke-width="1" opacity="1" d="M 1058.5 963 L 1060 963.5 L 1057.5 965 L 1058.5 963 Z " /><path fill="rgb(204,252,82)" stroke="rgb(204,252,82)" stroke-width="1" opacity="1" d="M 1488.5 963 L 1490 963.5 L 1479.5 969 L 1480.5 967 L 1488.5 963 Z " /><path fill="rgb(204,252,82)" stroke="rgb(204,252,82)" stroke-width="1" opacity="1" d="M 1030.5 964 L 1031 966.5 L 1030 966.5 L 1030.5 964 Z " /><path fill="rgb(204,252,82)" stroke="rgb(204,252,82)" stroke-width="1" opacity="1" d="M 1178.5 964 L 1180 964.5 L 1175.5 967 L 1176.5 965 L 1178.5 964 Z " /><path fill="rgb(204,252,82)" stroke="rgb(204,252,82)" stroke-width="1" opacity="1" d="M 1544.5 964 L 1548 965.5 L 1546.5 966 L 1544.5 964 Z " /><path fill="rgb(204,252,82)" stroke="rgb(204,252,82)" stroke-width="1" opacity="1" d="M 1054.5 965 L 1056 965.5 L 1053.5 967 L 1054.5 965 Z " /><path fill="rgb(204,252,82)" stroke="rgb(204,252,82)" stroke-width="1" opacity="1" d="M 1106.5 965 L 1112 969.5 L 1108.5 967 L 1106.5 965 Z " /><path fill="rgb(204,252,82)" stroke="rgb(204,252,82)" stroke-width="1" opacity="1" d="M 1229.5 965 L 1230.5 967 L 1229.5 965 Z " /><path fill="rgb(204,252,82)" stroke="rgb(204,252,82)" stroke-width="1" opacity="1" d="M 1396.5 965 L 1403 968.5 L 1401.5 968 L 1396.5 966 L 1396.5 965 Z " /><path fill="rgb(204,252,82)" stroke="rgb(204,252,82)" stroke-width="1" opacity="1" d="M 1549.5 966 L 1553 968.5 L 1551.5 968 L 1549.5 966 Z " /><path fill="rgb(204,252,82)" stroke="rgb(204,252,82)" stroke-width="1" opacity="1" d="M 1051.5 967 L 1050.5 969 L 1051.5 967 Z " /><path fill="rgb(204,252,82)" stroke="rgb(204,252,82)" stroke-width="1" opacity="1" d="M 1232.5 967 L 1233.5 969 L 1232.5 967 Z " /><path fill="rgb(204,252,82)" stroke="rgb(204,252,82)" stroke-width="1" opacity="1" d="M 1328.5 968 L 1327.5 970 L 1328.5 968 Z " /><path fill="rgb(204,252,82)" stroke="rgb(204,252,82)" stroke-width="1" opacity="1" d="M 1048.5 969 L 1043.5 975 L 1048.5 969 Z " /><path fill="rgb(204,252,82)" stroke="rgb(204,252,82)" stroke-width="1" opacity="1" d="M 1170.5 969 L 1168.5 972 L 1170.5 969 Z " /><path fill="rgb(204,252,82)" stroke="rgb(204,252,82)" stroke-width="1" opacity="1" d="M 1235.5 969 L 1239.5 974 L 1235.5 969 Z " /><path fill="rgb(204,252,82)" stroke="rgb(204,252,82)" stroke-width="1" opacity="1" d="M 1404.5 969 L 1406.5 972 L 1404.5 969 Z " /><path fill="rgb(204,252,82)" stroke="rgb(204,252,82)" stroke-width="1" opacity="1" d="M 1477.5 969 L 1476.5 971 L 1477.5 969 Z " /><path fill="rgb(204,252,82)" stroke="rgb(204,252,82)" stroke-width="1" opacity="1" d="M 1554.5 969 L 1555.5 971 L 1554.5 969 Z " /><path fill="rgb(204,252,82)" stroke="rgb(204,252,82)" stroke-width="1" opacity="1" d="M 1325.5 970 L 1323.5 973 L 1314.5 981 L 1322.5 972 L 1325.5 970 Z " /><path fill="rgb(204,252,82)" stroke="rgb(204,252,82)" stroke-width="1" opacity="1" d="M 1031.5 971 L 1032 973.5 L 1031 973.5 L 1031.5 971 Z " /><path fill="rgb(204,252,82)" stroke="rgb(204,252,82)" stroke-width="1" opacity="1" d="M 1474.5 971 L 1470.5 976 L 1474.5 971 Z " /><path fill="rgb(204,252,82)" stroke="rgb(204,252,82)" stroke-width="1" opacity="1" d="M 1557.5 971 L 1565.5 980 L 1557.5 971 Z " /><path fill="rgb(204,252,82)" stroke="rgb(204,252,82)" stroke-width="1" opacity="1" d="M 1166.5 972 L 1165.5 974 L 1166.5 972 Z " /><path fill="rgb(204,252,82)" stroke="rgb(204,252,82)" stroke-width="1" opacity="1" d="M 1408.5 972 L 1413.5 978 L 1408.5 972 Z " /><path fill="rgb(204,252,82)" stroke="rgb(204,252,82)" stroke-width="1" opacity="1" d="M 1115.5 973 L 1118.5 977 L 1115.5 973 Z " /><path fill="rgb(204,252,82)" stroke="rgb(204,252,82)" stroke-width="1" opacity="1" d="M 1163.5 975 L 1162.5 977 L 1163.5 975 Z " /><path fill="rgb(204,252,82)" stroke="rgb(204,252,82)" stroke-width="1" opacity="1" d="M 1042.5 976 L 1040.5 979 L 1042.5 976 Z " /><path fill="rgb(204,252,82)" stroke="rgb(204,252,82)" stroke-width="1" opacity="1" d="M 1241.5 976 L 1243.5 979 L 1241.5 976 Z " /><path fill="rgb(204,252,82)" stroke="rgb(204,252,82)" stroke-width="1" opacity="1" d="M 604.5 977 L 605 981.5 L 604 981.5 L 604.5 977 Z " /><path fill="rgb(204,252,82)" stroke="rgb(204,252,82)" stroke-width="1" opacity="1" d="M 1032.5 977 L 1033 980.5 L 1032 980.5 L 1032.5 977 Z " /><path fill="rgb(204,252,82)" stroke="rgb(204,252,82)" stroke-width="1" opacity="1" d="M 1119.5 978 L 1122 981.5 L 1120 980.5 L 1119.5 978 Z " /><path fill="rgb(204,252,82)" stroke="rgb(204,252,82)" stroke-width="1" opacity="1" d="M 1160.5 979 L 1159.5 981 L 1160.5 979 Z " /><path fill="rgb(204,252,82)" stroke="rgb(204,252,82)" stroke-width="1" opacity="1" d="M 1414.5 979 L 1416.5 982 L 1414.5 979 Z " /><path fill="rgb(204,252,82)" stroke="rgb(204,252,82)" stroke-width="1" opacity="1" d="M 1039.5 980 L 1038.5 982 L 1039.5 980 Z " /><path fill="rgb(204,252,82)" stroke="rgb(204,252,82)" stroke-width="1" opacity="1" d="M 1244.5 980 L 1247 983.5 L 1245 982.5 L 1244.5 980 Z " /><path fill="rgb(204,252,82)" stroke="rgb(204,252,82)" stroke-width="1" opacity="1" d="M 1465.5 980 L 1463.5 983 L 1465.5 980 Z " /><path fill="rgb(204,252,82)" stroke="rgb(204,252,82)" stroke-width="1" opacity="1" d="M 1358.5 981 L 1365 981.5 L 1358.5 982 L 1358.5 981 Z " /><path fill="rgb(204,252,82)" stroke="rgb(204,252,82)" stroke-width="1" opacity="1" d="M 1366.5 981 L 1372 981.5 L 1366.5 982 L 1366.5 981 Z " /><path fill="rgb(204,252,82)" stroke="rgb(204,252,82)" stroke-width="1" opacity="1" d="M 1509.5 981 L 1515 981.5 L 1509.5 982 L 1509.5 981 Z " /><path fill="rgb(204,252,82)" stroke="rgb(204,252,82)" stroke-width="1" opacity="1" d="M 1516.5 981 L 1523 981.5 L 1516.5 982 L 1516.5 981 Z " /><path fill="rgb(204,252,82)" stroke="rgb(204,252,82)" stroke-width="1" opacity="1" d="M 1566.5 981 L 1567.5 983 L 1566.5 981 Z " /><path fill="rgb(204,252,82)" stroke="rgb(204,252,82)" stroke-width="1" opacity="1" d="M 1158.5 982 L 1157.5 984 L 1158.5 982 Z " /><path fill="rgb(204,252,82)" stroke="rgb(204,252,82)" stroke-width="1" opacity="1" d="M 1313.5 982 L 1311.5 985 L 1313.5 982 Z " /><path fill="rgb(204,252,82)" stroke="rgb(204,252,82)" stroke-width="1" opacity="1" d="M 1375.5 982 L 1378 982.5 L 1375.5 983 L 1375.5 982 Z " /><path fill="rgb(204,252,82)" stroke="rgb(204,252,82)" stroke-width="1" opacity="1" d="M 1503.5 982 L 1506 982.5 L 1503.5 983 L 1503.5 982 Z " /><path fill="rgb(204,252,82)" stroke="rgb(204,252,82)" stroke-width="1" opacity="1" d="M 1526.5 982 L 1529 982.5 L 1526.5 983 L 1526.5 982 Z " /><path fill="rgb(204,252,82)" stroke="rgb(204,252,82)" stroke-width="1" opacity="1" d="M 1417.5 983 L 1419.5 986 L 1417.5 983 Z " /><path fill="rgb(204,252,82)" stroke="rgb(204,252,82)" stroke-width="1" opacity="1" d="M 1033.5 984 L 1034 986.5 L 1033 986.5 L 1033.5 984 Z " /><path fill="rgb(204,252,82)" stroke="rgb(204,252,82)" stroke-width="1" opacity="1" d="M 1062.5 984 L 1067 984.5 L 1062.5 985 L 1062.5 984 Z " /><path fill="rgb(204,252,82)" stroke="rgb(204,252,82)" stroke-width="1" opacity="1" d="M 1209.5 984 L 1218 984.5 L 1209.5 985 L 1209.5 984 Z " /><path fill="rgb(204,252,82)" stroke="rgb(204,252,82)" stroke-width="1" opacity="1" d="M 1462.5 984 L 1461.5 986 L 1462.5 984 Z " /><path fill="rgb(204,252,82)" stroke="rgb(204,252,82)" stroke-width="1" opacity="1" d="M 1057.5 985 L 1059 985.5 L 1055.5 987 L 1055.5 986 L 1057.5 985 Z " /><path fill="rgb(204,252,82)" stroke="rgb(204,252,82)" stroke-width="1" opacity="1" d="M 1201.5 985 L 1204 985.5 L 1201.5 986 L 1201.5 985 Z " /><path fill="rgb(204,252,82)" stroke="rgb(204,252,82)" stroke-width="1" opacity="1" d="M 1221.5 985 L 1224 985.5 L 1221.5 986 L 1221.5 985 Z " /><path fill="rgb(204,252,82)" stroke="rgb(204,252,82)" stroke-width="1" opacity="1" d="M 1345.5 985 L 1344.5 987 L 1345.5 985 Z " /><path fill="rgb(204,252,82)" stroke="rgb(204,252,82)" stroke-width="1" opacity="1" d="M 1385.5 985 L 1386.5 987 L 1385.5 985 Z " /><path fill="rgb(204,252,82)" stroke="rgb(204,252,82)" stroke-width="1" opacity="1" d="M 1569.5 985 L 1570.5 987 L 1569.5 985 Z " /><path fill="rgb(204,252,82)" stroke="rgb(204,252,82)" stroke-width="1" opacity="1" d="M 1494.5 986 L 1493.5 988 L 1494.5 986 Z " /><path fill="rgb(204,252,82)" stroke="rgb(204,252,82)" stroke-width="1" opacity="1" d="M 1537.5 986 L 1541.5 991 L 1537.5 986 Z " /><path fill="rgb(204,252,82)" stroke="rgb(204,252,82)" stroke-width="1" opacity="1" d="M 1086.5 987 L 1089 988.5 L 1087.5 988 L 1086.5 987 Z " /><path fill="rgb(204,252,82)" stroke="rgb(204,252,82)" stroke-width="1" opacity="1" d="M 1342.5 987 L 1338.5 992 L 1342.5 987 Z " /><path fill="rgb(204,252,82)" stroke="rgb(204,252,82)" stroke-width="1" opacity="1" d="M 1388.5 987 L 1394.5 994 L 1388.5 987 Z " /><path fill="rgb(204,252,82)" stroke="rgb(204,252,82)" stroke-width="1" opacity="1" d="M 1460.5 987 L 1460 988.5 L 1458.5 991 L 1459 989.5 L 1460.5 987 Z " /><path fill="rgb(204,252,82)" stroke="rgb(204,252,82)" stroke-width="1" opacity="1" d="M 1309.5 988 L 1309 989.5 L 1307.5 992 L 1308 990.5 L 1309.5 988 Z " /><path fill="rgb(204,252,82)" stroke="rgb(204,252,82)" stroke-width="1" opacity="1" d="M 1491.5 988 L 1486.5 994 L 1491.5 988 Z " /><path fill="rgb(204,252,82)" stroke="rgb(204,252,82)" stroke-width="1" opacity="1" d="M 1090.5 989 L 1096 995.5 L 1094 994.5 L 1090.5 989 Z " /><path fill="rgb(204,252,82)" stroke="rgb(204,252,82)" stroke-width="1" opacity="1" d="M 1048.5 990 L 1044.5 995 L 1048.5 990 Z " /><path fill="rgb(204,252,82)" stroke="rgb(204,252,82)" stroke-width="1" opacity="1" d="M 1189.5 990 L 1182.5 998 L 1189.5 990 Z " /><path fill="rgb(204,252,82)" stroke="rgb(204,252,82)" stroke-width="1" opacity="1" d="M 1234.5 990 L 1241.5 998 L 1234.5 990 Z " /><path fill="rgb(204,252,82)" stroke="rgb(204,252,82)" stroke-width="1" opacity="1" d="M 372.5 991 L 375.5 995 L 372.5 991 Z " /><path fill="rgb(204,252,82)" stroke="rgb(204,252,82)" stroke-width="1" opacity="1" d="M 600.5 991 L 598.5 994 L 600.5 991 Z " /><path fill="rgb(204,252,82)" stroke="rgb(204,252,82)" stroke-width="1" opacity="1" d="M 1125.5 991 L 1126 993.5 L 1125 993.5 L 1125.5 991 Z " /><path fill="rgb(204,252,82)" stroke="rgb(204,252,82)" stroke-width="1" opacity="1" d="M 1336.5 993 L 1334.5 996 L 1336.5 993 Z " /><path fill="rgb(204,252,82)" stroke="rgb(204,252,82)" stroke-width="1" opacity="1" d="M 1544.5 993 L 1546.5 996 L 1544.5 993 Z " /><path fill="rgb(204,252,82)" stroke="rgb(204,252,82)" stroke-width="1" opacity="1" d="M 1456.5 994 L 1457 995.5 L 1455.5 998 L 1455 996.5 L 1456.5 994 Z " /><path fill="rgb(204,252,82)" stroke="rgb(204,252,82)" stroke-width="1" opacity="1" d="M 1395.5 995 L 1396.5 997 L 1395.5 995 Z " /><path fill="rgb(204,252,82)" stroke="rgb(204,252,82)" stroke-width="1" opacity="1" d="M 1485.5 995 L 1484.5 997 L 1485.5 995 Z " /><path fill="rgb(204,252,82)" stroke="rgb(204,252,82)" stroke-width="1" opacity="1" d="M 377.5 996 L 379.5 999 L 377.5 996 Z " /><path fill="rgb(204,252,82)" stroke="rgb(204,252,82)" stroke-width="1" opacity="1" d="M 595.5 996 L 593.5 999 L 595.5 996 Z " /><path fill="rgb(204,252,82)" stroke="rgb(204,252,82)" stroke-width="1" opacity="1" d="M 1043.5 996 L 1041.5 999 L 1043.5 996 Z " /><path fill="rgb(204,252,82)" stroke="rgb(204,252,82)" stroke-width="1" opacity="1" d="M 1397.5 998 L 1399 1000.5 L 1398 1000.5 L 1397.5 998 Z " /><path fill="rgb(204,252,82)" stroke="rgb(204,252,82)" stroke-width="1" opacity="1" d="M 1483.5 998 L 1483 999.5 L 1482.5 1001 L 1482 999.5 L 1483.5 998 Z " /><path fill="rgb(204,252,82)" stroke="rgb(204,252,82)" stroke-width="1" opacity="1" d="M 1181.5 999 L 1180.5 1001 L 1181.5 999 Z " /><path fill="rgb(204,252,82)" stroke="rgb(204,252,82)" stroke-width="1" opacity="1" d="M 1242.5 999 L 1245 1002.5 L 1243 1001.5 L 1242.5 999 Z " /><path fill="rgb(204,252,82)" stroke="rgb(204,252,82)" stroke-width="1" opacity="1" d="M 1127.5 1001 L 1128 1004.5 L 1127 1004.5 L 1127.5 1001 Z " /><path fill="rgb(204,252,82)" stroke="rgb(204,252,82)" stroke-width="1" opacity="1" d="M 389.5 1002 L 392 1002.5 L 389.5 1003 L 389.5 1002 Z " /><path fill="rgb(204,252,82)" stroke="rgb(204,252,82)" stroke-width="1" opacity="1" d="M 581.5 1002 L 584 1002.5 L 581.5 1003 L 581.5 1002 Z " /><path fill="rgb(204,252,82)" stroke="rgb(204,252,82)" stroke-width="1" opacity="1" d="M 1149.5 1004 L 1150 1006.5 L 1149 1006.5 L 1149.5 1004 Z " /><path fill="rgb(204,252,82)" stroke="rgb(204,252,82)" stroke-width="1" opacity="1" d="M 1178.5 1004 L 1179 1005.5 L 1177.5 1008 L 1177 1006.5 L 1178.5 1004 Z " /><path fill="rgb(204,252,82)" stroke="rgb(204,252,82)" stroke-width="1" opacity="1" d="M 1302.5 1004 L 1303 1006.5 L 1302 1006.5 L 1302.5 1004 Z " /><path fill="rgb(204,252,82)" stroke="rgb(204,252,82)" stroke-width="1" opacity="1" d="M 1452.5 1006 L 1453 1008.5 L 1452 1008.5 L 1452.5 1006 Z " /><path fill="rgb(204,252,82)" stroke="rgb(204,252,82)" stroke-width="1" opacity="1" d="M 1428.5 1007 L 1429 1009.5 L 1428 1009.5 L 1428.5 1007 Z " /><path fill="rgb(204,252,82)" stroke="rgb(204,252,82)" stroke-width="1" opacity="1" d="M 1128.5 1009 L 1129 1016.5 L 1128 1016.5 L 1128.5 1009 Z " /><path fill="rgb(204,252,82)" stroke="rgb(204,252,82)" stroke-width="1" opacity="1" d="M 1148.5 1009 L 1149 1012.5 L 1148 1012.5 L 1148.5 1009 Z " /><path fill="rgb(204,252,82)" stroke="rgb(204,252,82)" stroke-width="1" opacity="1" d="M 436.5 1010 L 435.5 1012 L 429.5 1015 L 430.5 1013 L 436.5 1010 Z " /><path fill="rgb(204,252,82)" stroke="rgb(204,252,82)" stroke-width="1" opacity="1" d="M 537.5 1011 L 540 1012.5 L 538.5 1012 L 537.5 1011 Z " /><path fill="rgb(204,252,82)" stroke="rgb(204,252,82)" stroke-width="1" opacity="1" d="M 1451.5 1011 L 1452 1013.5 L 1451 1013.5 L 1451.5 1011 Z " /><path fill="rgb(204,252,82)" stroke="rgb(204,252,82)" stroke-width="1" opacity="1" d="M 1478.5 1011 L 1479 1013.5 L 1478 1013.5 L 1478.5 1011 Z " /><path fill="rgb(204,252,82)" stroke="rgb(204,252,82)" stroke-width="1" opacity="1" d="M 1579.5 1011 L 1580 1013.5 L 1579 1013.5 L 1579.5 1011 Z " /><path fill="rgb(204,252,82)" stroke="rgb(204,252,82)" stroke-width="1" opacity="1" d="M 1402.5 1012 L 1403 1014.5 L 1402 1014.5 L 1402.5 1012 Z " /><path fill="rgb(204,252,82)" stroke="rgb(204,252,82)" stroke-width="1" opacity="1" d="M 1101.5 1013 L 1102 1016.5 L 1101 1016.5 L 1101.5 1013 Z " /><path fill="rgb(204,252,82)" stroke="rgb(204,252,82)" stroke-width="1" opacity="1" d="M 1175.5 1013 L 1176 1015.5 L 1175 1015.5 L 1175.5 1013 Z " /><path fill="rgb(204,252,82)" stroke="rgb(204,252,82)" stroke-width="1" opacity="1" d="M 1429.5 1013 L 1430 1015.5 L 1429 1015.5 L 1429.5 1013 Z " /><path fill="rgb(204,252,82)" stroke="rgb(204,252,82)" stroke-width="1" opacity="1" d="M 1035.5 1014 L 1036 1016.5 L 1035 1016.5 L 1035.5 1014 Z " /><path fill="rgb(204,252,82)" stroke="rgb(204,252,82)" stroke-width="1" opacity="1" d="M 1327.5 1014 L 1328 1017.5 L 1327 1017.5 L 1327.5 1014 Z " /><path fill="rgb(204,252,82)" stroke="rgb(204,252,82)" stroke-width="1" opacity="1" d="M 545.5 1015 L 549 1017.5 L 547.5 1017 L 545.5 1015 Z " /><path fill="rgb(204,252,82)" stroke="rgb(204,252,82)" stroke-width="1" opacity="1" d="M 1300.5 1015 L 1301 1019.5 L 1300 1019.5 L 1300.5 1015 Z " /><path fill="rgb(204,252,82)" stroke="rgb(204,252,82)" stroke-width="1" opacity="1" d="M 425.5 1016 L 424.5 1018 L 422.5 1019 L 423.5 1017 L 425.5 1016 Z " /><path fill="rgb(204,252,82)" stroke="rgb(204,252,82)" stroke-width="1" opacity="1" d="M 1553.5 1016 L 1554 1019.5 L 1553 1019.5 L 1553.5 1016 Z " /><path fill="rgb(204,252,82)" stroke="rgb(204,252,82)" stroke-width="1" opacity="1" d="M 1147.5 1017 L 1148 1037.5 L 1147 1037.5 L 1147.5 1017 Z " /><path fill="rgb(204,252,82)" stroke="rgb(204,252,82)" stroke-width="1" opacity="1" d="M 1477.5 1017 L 1478 1020.5 L 1477 1020.5 L 1477.5 1017 Z " /><path fill="rgb(204,252,82)" stroke="rgb(204,252,82)" stroke-width="1" opacity="1" d="M 1580.5 1017 L 1581 1023.5 L 1580 1023.5 L 1580.5 1017 Z " /><path fill="rgb(204,252,82)" stroke="rgb(204,252,82)" stroke-width="1" opacity="1" d="M 550.5 1018 L 551.5 1020 L 550.5 1018 Z " /><path fill="rgb(204,252,82)" stroke="rgb(204,252,82)" stroke-width="1" opacity="1" d="M 1174.5 1018 L 1175 1021.5 L 1174 1021.5 L 1174.5 1018 Z " /><path fill="rgb(204,252,82)" stroke="rgb(204,252,82)" stroke-width="1" opacity="1" d="M 1450.5 1018 L 1451 1036.5 L 1450 1036.5 L 1450.5 1018 Z " /><path fill="rgb(204,252,82)" stroke="rgb(204,252,82)" stroke-width="1" opacity="1" d="M 420.5 1019 L 418.5 1022 L 420.5 1019 Z " /><path fill="rgb(204,252,82)" stroke="rgb(204,252,82)" stroke-width="1" opacity="1" d="M 1403.5 1019 L 1404 1033.5 L 1403 1033.5 L 1403.5 1019 Z " /><path fill="rgb(204,252,82)" stroke="rgb(204,252,82)" stroke-width="1" opacity="1" d="M 553.5 1020 L 554.5 1022 L 553.5 1020 Z " /><path fill="rgb(204,252,82)" stroke="rgb(204,252,82)" stroke-width="1" opacity="1" d="M 1249.5 1020 L 1250 1026.5 L 1249 1026.5 L 1249.5 1020 Z " /><path fill="rgb(204,252,82)" stroke="rgb(204,252,82)" stroke-width="1" opacity="1" d="M 1034.5 1021 L 1035 1028.5 L 1034 1028.5 L 1034.5 1021 Z " /><path fill="rgb(204,252,82)" stroke="rgb(204,252,82)" stroke-width="1" opacity="1" d="M 1430.5 1021 L 1431 1031.5 L 1430 1031.5 L 1430.5 1021 Z " /><path fill="rgb(204,252,82)" stroke="rgb(204,252,82)" stroke-width="1" opacity="1" d="M 416.5 1022 L 415.5 1024 L 416.5 1022 Z " /><path fill="rgb(204,252,82)" stroke="rgb(204,252,82)" stroke-width="1" opacity="1" d="M 556.5 1022 L 559.5 1026 L 556.5 1022 Z " /><path fill="rgb(204,252,82)" stroke="rgb(204,252,82)" stroke-width="1" opacity="1" d="M 1326.5 1024 L 1327 1028.5 L 1326 1028.5 L 1326.5 1024 Z " /><path fill="rgb(204,252,82)" stroke="rgb(204,252,82)" stroke-width="1" opacity="1" d="M 412.5 1025 L 409.5 1029 L 412.5 1025 Z " /><path fill="rgb(204,252,82)" stroke="rgb(204,252,82)" stroke-width="1" opacity="1" d="M 561.5 1026 L 566.5 1032 L 561.5 1026 Z " /><path fill="rgb(204,252,82)" stroke="rgb(204,252,82)" stroke-width="1" opacity="1" d="M 1102.5 1027 L 1103 1092 L 1129 1092.5 L 1102 1093 L 1102.5 1027 Z " /><path fill="rgb(204,252,82)" stroke="rgb(204,252,82)" stroke-width="1" opacity="1" d="M 1249.5 1029 L 1250 1035.5 L 1249 1035.5 L 1249.5 1029 Z " /><path fill="rgb(204,252,82)" stroke="rgb(204,252,82)" stroke-width="1" opacity="1" d="M 406.5 1030 L 398.5 1039 L 406.5 1030 Z " /><path fill="rgb(204,252,82)" stroke="rgb(204,252,82)" stroke-width="1" opacity="1" d="M 1477.5 1030 L 1478 1036.5 L 1477 1036.5 L 1477.5 1030 Z " /><path fill="rgb(204,252,82)" stroke="rgb(204,252,82)" stroke-width="1" opacity="1" d="M 1580.5 1030 L 1581 1037.5 L 1580 1037.5 L 1580.5 1030 Z " /><path fill="rgb(204,252,82)" stroke="rgb(204,252,82)" stroke-width="1" opacity="1" d="M 1553.5 1032 L 1554 1037.5 L 1553 1037.5 L 1553.5 1032 Z " /><path fill="rgb(204,252,82)" stroke="rgb(204,252,82)" stroke-width="1" opacity="1" d="M 1174.5 1033 L 1175 1037.5 L 1174 1037.5 L 1174.5 1033 Z " /><path fill="rgb(204,252,82)" stroke="rgb(204,252,82)" stroke-width="1" opacity="1" d="M 691.5 1034 L 692 1093 L 664.5 1093 L 663 1091.5 L 663.5 1081 L 664 1092 L 691 1092 L 691.5 1034 Z " /><path fill="rgb(204,252,82)" stroke="rgb(204,252,82)" stroke-width="1" opacity="1" d="M 1300.5 1035 L 1301 1039.5 L 1300 1039.5 L 1300.5 1035 Z " /><path fill="rgb(204,252,82)" stroke="rgb(204,252,82)" stroke-width="1" opacity="1" d="M 1327.5 1036 L 1328 1038.5 L 1327 1038.5 L 1327.5 1036 Z " /><path fill="rgb(204,252,82)" stroke="rgb(204,252,82)" stroke-width="1" opacity="1" d="M 572.5 1037 L 578.5 1044 L 572.5 1037 Z " /><path fill="rgb(204,252,82)" stroke="rgb(204,252,82)" stroke-width="1" opacity="1" d="M 831.5 1039 L 832 1087.5 L 831 1087.5 L 831.5 1039 Z " /><path fill="rgb(204,252,82)" stroke="rgb(204,252,82)" stroke-width="1" opacity="1" d="M 1429.5 1039 L 1430 1041.5 L 1429 1041.5 L 1429.5 1039 Z " /><path fill="rgb(204,252,82)" stroke="rgb(204,252,82)" stroke-width="1" opacity="1" d="M 1451.5 1040 L 1452 1043.5 L 1451 1043.5 L 1451.5 1040 Z " /><path fill="rgb(204,252,82)" stroke="rgb(204,252,82)" stroke-width="1" opacity="1" d="M 1552.5 1040 L 1553 1042.5 L 1552 1042.5 L 1552.5 1040 Z " /><path fill="rgb(204,252,82)" stroke="rgb(204,252,82)" stroke-width="1" opacity="1" d="M 396.5 1041 L 393.5 1045 L 396.5 1041 Z " /><path fill="rgb(204,252,82)" stroke="rgb(204,252,82)" stroke-width="1" opacity="1" d="M 1328.5 1041 L 1329 1043.5 L 1328 1043.5 L 1328.5 1041 Z " /><path fill="rgb(204,252,82)" stroke="rgb(204,252,82)" stroke-width="1" opacity="1" d="M 1148.5 1042 L 1149 1045.5 L 1148 1045.5 L 1148.5 1042 Z " /><path fill="rgb(204,252,82)" stroke="rgb(204,252,82)" stroke-width="1" opacity="1" d="M 1579.5 1042 L 1580 1044.5 L 1579 1044.5 L 1579.5 1042 Z " /><path fill="rgb(204,252,82)" stroke="rgb(204,252,82)" stroke-width="1" opacity="1" d="M 1301.5 1043 L 1302 1046.5 L 1301 1046.5 L 1301.5 1043 Z " /><path fill="rgb(204,252,82)" stroke="rgb(204,252,82)" stroke-width="1" opacity="1" d="M 1401.5 1043 L 1402 1045.5 L 1401 1045.5 L 1401.5 1043 Z " /><path fill="rgb(204,252,82)" stroke="rgb(204,252,82)" stroke-width="1" opacity="1" d="M 579.5 1045 L 581.5 1048 L 579.5 1045 Z " /><path fill="rgb(204,252,82)" stroke="rgb(204,252,82)" stroke-width="1" opacity="1" d="M 392.5 1046 L 390.5 1049 L 392.5 1046 Z " /><path fill="rgb(204,252,82)" stroke="rgb(204,252,82)" stroke-width="1" opacity="1" d="M 1578.5 1047 L 1579 1049.5 L 1578 1049.5 L 1578.5 1047 Z " /><path fill="rgb(204,252,82)" stroke="rgb(204,252,82)" stroke-width="1" opacity="1" d="M 1480.5 1048 L 1482 1051.5 L 1481 1051.5 L 1480.5 1048 Z " /><path fill="rgb(204,252,82)" stroke="rgb(204,252,82)" stroke-width="1" opacity="1" d="M 582.5 1049 L 586 1053.5 L 584 1052.5 L 582.5 1049 Z " /><path fill="rgb(204,252,82)" stroke="rgb(204,252,82)" stroke-width="1" opacity="1" d="M 389.5 1050 L 388.5 1052 L 389.5 1050 Z " /><path fill="rgb(204,252,82)" stroke="rgb(204,252,82)" stroke-width="1" opacity="1" d="M 1245.5 1050 L 1246 1051.5 L 1243.5 1055 L 1244 1053.5 L 1245.5 1050 Z " /><path fill="rgb(204,252,82)" stroke="rgb(204,252,82)" stroke-width="1" opacity="1" d="M 1453.5 1050 L 1454 1052.5 L 1453 1052.5 L 1453.5 1050 Z " /><path fill="rgb(204,252,82)" stroke="rgb(204,252,82)" stroke-width="1" opacity="1" d="M 1178.5 1051 L 1181 1055.5 L 1179 1054.5 L 1178.5 1051 Z " /><path fill="rgb(204,252,82)" stroke="rgb(204,252,82)" stroke-width="1" opacity="1" d="M 387.5 1053 L 386.5 1055 L 387.5 1053 Z " /><path fill="rgb(204,252,82)" stroke="rgb(204,252,82)" stroke-width="1" opacity="1" d="M 1150.5 1053 L 1151 1055.5 L 1150 1055.5 L 1150.5 1053 Z " /><path fill="rgb(204,252,82)" stroke="rgb(204,252,82)" stroke-width="1" opacity="1" d="M 1332.5 1054 L 1335 1057.5 L 1333 1056.5 L 1332.5 1054 Z " /><path fill="rgb(204,252,82)" stroke="rgb(204,252,82)" stroke-width="1" opacity="1" d="M 1548.5 1054 L 1548 1055.5 L 1546.5 1058 L 1547 1056.5 L 1548.5 1054 Z " /><path fill="rgb(204,252,82)" stroke="rgb(204,252,82)" stroke-width="1" opacity="1" d="M 586.5 1055 L 587.5 1057 L 586.5 1055 Z " /><path fill="rgb(204,252,82)" stroke="rgb(204,252,82)" stroke-width="1" opacity="1" d="M 1483.5 1055 L 1488 1060.5 L 1484 1057.5 L 1483.5 1055 Z " /><path fill="rgb(204,252,82)" stroke="rgb(204,252,82)" stroke-width="1" opacity="1" d="M 385.5 1056 L 384.5 1058 L 385.5 1056 Z " /><path fill="rgb(204,252,82)" stroke="rgb(204,252,82)" stroke-width="1" opacity="1" d="M 1242.5 1056 L 1241.5 1058 L 1242.5 1056 Z " /><path fill="rgb(204,252,82)" stroke="rgb(204,252,82)" stroke-width="1" opacity="1" d="M 1181.5 1057 L 1182.5 1059 L 1181.5 1057 Z " /><path fill="rgb(204,252,82)" stroke="rgb(204,252,82)" stroke-width="1" opacity="1" d="M 1396.5 1057 L 1394.5 1060 L 1396.5 1057 Z " /><path fill="rgb(204,252,82)" stroke="rgb(204,252,82)" stroke-width="1" opacity="1" d="M 1455.5 1057 L 1457 1060.5 L 1456 1060.5 L 1455.5 1057 Z " /><path fill="rgb(204,252,82)" stroke="rgb(204,252,82)" stroke-width="1" opacity="1" d="M 588.5 1058 L 592 1063.5 L 590 1062.5 L 588.5 1058 Z " /><path fill="rgb(204,252,82)" stroke="rgb(204,252,82)" stroke-width="1" opacity="1" d="M 1240.5 1059 L 1235.5 1065 L 1240.5 1059 Z " /><path fill="rgb(204,252,82)" stroke="rgb(204,252,82)" stroke-width="1" opacity="1" d="M 1335.5 1059 L 1341.5 1066 L 1335.5 1059 Z " /><path fill="rgb(204,252,82)" stroke="rgb(204,252,82)" stroke-width="1" opacity="1" d="M 1545.5 1059 L 1538.5 1067 L 1545.5 1059 Z " /><path fill="rgb(204,252,82)" stroke="rgb(204,252,82)" stroke-width="1" opacity="1" d="M 1183.5 1060 L 1188.5 1066 L 1183.5 1060 Z " /><path fill="rgb(204,252,82)" stroke="rgb(204,252,82)" stroke-width="1" opacity="1" d="M 1393.5 1061 L 1389.5 1066 L 1393.5 1061 Z " /><path fill="rgb(204,252,82)" stroke="rgb(204,252,82)" stroke-width="1" opacity="1" d="M 1488.5 1062 L 1490.5 1065 L 1488.5 1062 Z " /><path fill="rgb(204,252,82)" stroke="rgb(204,252,82)" stroke-width="1" opacity="1" d="M 1573.5 1063 L 1572.5 1065 L 1573.5 1063 Z " /><path fill="rgb(204,252,82)" stroke="rgb(204,252,82)" stroke-width="1" opacity="1" d="M 1422.5 1064 L 1422 1065.5 L 1419.5 1070 L 1420 1068.5 L 1422.5 1064 Z " /><path fill="rgb(204,252,82)" stroke="rgb(204,252,82)" stroke-width="1" opacity="1" d="M 1233.5 1065 L 1232.5 1067 L 1233.5 1065 Z " /><path fill="rgb(204,252,82)" stroke="rgb(204,252,82)" stroke-width="1" opacity="1" d="M 1308.5 1065 L 1311 1068.5 L 1309 1067.5 L 1308.5 1065 Z " /><path fill="rgb(204,252,82)" stroke="rgb(204,252,82)" stroke-width="1" opacity="1" d="M 1250.5 1066 L 1251 1122.5 L 1250 1122.5 L 1250 1068.5 L 1249 1067.5 L 1250.5 1066 Z " /><path fill="rgb(204,252,82)" stroke="rgb(204,252,82)" stroke-width="1" opacity="1" d="M 1343.5 1066 L 1344.5 1068 L 1343.5 1066 Z " /><path fill="rgb(204,252,82)" stroke="rgb(204,252,82)" stroke-width="1" opacity="1" d="M 1387.5 1066 L 1386.5 1068 L 1384.5 1069 L 1385.5 1067 L 1387.5 1066 Z " /><path fill="rgb(204,252,82)" stroke="rgb(204,252,82)" stroke-width="1" opacity="1" d="M 593.5 1067 L 596 1072.5 L 595 1072.5 L 593.5 1067 Z " /><path fill="rgb(204,252,82)" stroke="rgb(204,252,82)" stroke-width="1" opacity="1" d="M 1192.5 1067 L 1193.5 1069 L 1192.5 1067 Z " /><path fill="rgb(204,252,82)" stroke="rgb(204,252,82)" stroke-width="1" opacity="1" d="M 1495.5 1067 L 1496.5 1069 L 1495.5 1067 Z " /><path fill="rgb(204,252,82)" stroke="rgb(204,252,82)" stroke-width="1" opacity="1" d="M 1460.5 1068 L 1461.5 1070 L 1460.5 1068 Z " /><path fill="rgb(204,252,82)" stroke="rgb(204,252,82)" stroke-width="1" opacity="1" d="M 896.5 1069 L 897 1092 L 973 1092.5 L 896 1093 L 896.5 1069 Z " /><path fill="rgb(204,252,82)" stroke="rgb(204,252,82)" stroke-width="1" opacity="1" d="M 1311.5 1070 L 1312.5 1072 L 1311.5 1070 Z " /><path fill="rgb(204,252,82)" stroke="rgb(204,252,82)" stroke-width="1" opacity="1" d="M 1569.5 1070 L 1568.5 1072 L 1569.5 1070 Z " /><path fill="rgb(204,252,82)" stroke="rgb(204,252,82)" stroke-width="1" opacity="1" d="M 1157.5 1071 L 1169 1084.5 L 1160 1076.5 L 1157.5 1071 Z " /><path fill="rgb(204,252,82)" stroke="rgb(204,252,82)" stroke-width="1" opacity="1" d="M 1203.5 1071 L 1207 1071.5 L 1203.5 1072 L 1203.5 1071 Z " /><path fill="rgb(204,252,82)" stroke="rgb(204,252,82)" stroke-width="1" opacity="1" d="M 1215.5 1071 L 1219 1071.5 L 1215.5 1072 L 1215.5 1071 Z " /><path fill="rgb(204,252,82)" stroke="rgb(204,252,82)" stroke-width="1" opacity="1" d="M 1247.5 1071 L 1246.5 1073 L 1247.5 1071 Z " /><path fill="rgb(204,252,82)" stroke="rgb(204,252,82)" stroke-width="1" opacity="1" d="M 1355.5 1071 L 1358 1071.5 L 1355.5 1072 L 1355.5 1071 Z " /><path fill="rgb(204,252,82)" stroke="rgb(204,252,82)" stroke-width="1" opacity="1" d="M 1372.5 1071 L 1376 1071.5 L 1372.5 1072 L 1372.5 1071 Z " /><path fill="rgb(204,252,82)" stroke="rgb(204,252,82)" stroke-width="1" opacity="1" d="M 1418.5 1071 L 1416.5 1074 L 1418.5 1071 Z " /><path fill="rgb(204,252,82)" stroke="rgb(204,252,82)" stroke-width="1" opacity="1" d="M 1462.5 1071 L 1464.5 1074 L 1462.5 1071 Z " /><path fill="rgb(204,252,82)" stroke="rgb(204,252,82)" stroke-width="1" opacity="1" d="M 1505.5 1071 L 1508 1071.5 L 1505.5 1072 L 1505.5 1071 Z " /><path fill="rgb(204,252,82)" stroke="rgb(204,252,82)" stroke-width="1" opacity="1" d="M 1523.5 1071 L 1526 1071.5 L 1523.5 1072 L 1523.5 1071 Z " /><path fill="rgb(204,252,82)" stroke="rgb(204,252,82)" stroke-width="1" opacity="1" d="M 1313.5 1073 L 1327 1085.5 L 1324.5 1084 L 1313.5 1073 Z " /><path fill="rgb(204,252,82)" stroke="rgb(204,252,82)" stroke-width="1" opacity="1" d="M 1567.5 1073 L 1557.5 1084 L 1567.5 1073 Z " /><path fill="rgb(204,252,82)" stroke="rgb(204,252,82)" stroke-width="1" opacity="1" d="M 1245.5 1074 L 1244.5 1076 L 1245.5 1074 Z " /><path fill="rgb(204,252,82)" stroke="rgb(204,252,82)" stroke-width="1" opacity="1" d="M 663.5 1075 L 664 1079.5 L 663 1079.5 L 663.5 1075 Z " /><path fill="rgb(204,252,82)" stroke="rgb(204,252,82)" stroke-width="1" opacity="1" d="M 1415.5 1075 L 1408.5 1083 L 1415.5 1075 Z " /><path fill="rgb(204,252,82)" stroke="rgb(204,252,82)" stroke-width="1" opacity="1" d="M 1465.5 1075 L 1476 1084.5 L 1473.5 1083 L 1465.5 1075 Z " /><path fill="rgb(204,252,82)" stroke="rgb(204,252,82)" stroke-width="1" opacity="1" d="M 1243.5 1077 L 1236.5 1085 L 1243.5 1077 Z " /><path fill="rgb(204,252,82)" stroke="rgb(204,252,82)" stroke-width="1" opacity="1" d="M 761 1078 Q 764 1077 763 1080 Q 760 1081 761 1078 Z " /><path fill="rgb(204,252,82)" stroke="rgb(204,252,82)" stroke-width="1" opacity="1" d="M 1406.5 1083 L 1405.5 1085 L 1406.5 1083 Z " /><path fill="rgb(204,252,82)" stroke="rgb(204,252,82)" stroke-width="1" opacity="1" d="M 1555.5 1084 L 1554.5 1086 L 1555.5 1084 Z " /><path fill="rgb(204,252,82)" stroke="rgb(204,252,82)" stroke-width="1" opacity="1" d="M 1170.5 1085 L 1172.5 1088 L 1170.5 1085 Z " /><path fill="rgb(204,252,82)" stroke="rgb(204,252,82)" stroke-width="1" opacity="1" d="M 1234.5 1085 L 1232.5 1088 L 1234.5 1085 Z " /><path fill="rgb(204,252,82)" stroke="rgb(204,252,82)" stroke-width="1" opacity="1" d="M 1403.5 1085 L 1402.5 1087 L 1403.5 1085 Z " /><path fill="rgb(204,252,82)" stroke="rgb(204,252,82)" stroke-width="1" opacity="1" d="M 1477.5 1085 L 1478.5 1087 L 1477.5 1085 Z " /><path fill="rgb(204,252,82)" stroke="rgb(204,252,82)" stroke-width="1" opacity="1" d="M 1328.5 1086 L 1335 1089.5 L 1333.5 1090 Q 1328.9 1088.8 1328.5 1086 Z " /><path fill="rgb(204,252,82)" stroke="rgb(204,252,82)" stroke-width="1" opacity="1" d="M 1552.5 1086 L 1551.5 1088 L 1547.5 1090 L 1548.5 1088 L 1552.5 1086 Z " /><path fill="rgb(204,252,82)" stroke="rgb(204,252,82)" stroke-width="1" opacity="1" d="M 1230.5 1088 L 1229.5 1090 L 1227.5 1091 L 1228.5 1089 L 1230.5 1088 Z " /><path fill="rgb(204,252,82)" stroke="rgb(204,252,82)" stroke-width="1" opacity="1" d="M 1176.5 1089 L 1179 1090.5 L 1177.5 1091 L 1176.5 1089 Z " /><path fill="rgb(204,252,82)" stroke="rgb(204,252,82)" stroke-width="1" opacity="1" d="M 741.5 1092 L 782 1092.5 L 741.5 1093 L 741.5 1092 Z " /><path fill="rgb(204,252,82)" stroke="rgb(204,252,82)" stroke-width="1" opacity="1" d="M 831.5 1092 L 859 1092.5 L 831.5 1093 L 831.5 1092 Z " /><path fill="rgb(204,252,82)" stroke="rgb(204,252,82)" stroke-width="1" opacity="1" d="M 1006.5 1092 L 1034 1092.5 L 1006.5 1093 L 1006.5 1092 Z " /><path fill="rgb(204,252,82)" stroke="rgb(204,252,82)" stroke-width="1" opacity="1" d="M 370.5 1093 L 371 1095.5 L 370 1095.5 L 370.5 1093 Z " /><path fill="rgb(204,252,82)" stroke="rgb(204,252,82)" stroke-width="1" opacity="1" d="M 1344.5 1093 L 1347 1093.5 L 1344.5 1094 L 1344.5 1093 Z " /><path fill="rgb(204,252,82)" stroke="rgb(204,252,82)" stroke-width="1" opacity="1" d="M 1383.5 1093 L 1386 1093.5 L 1383.5 1094 L 1383.5 1093 Z " /><path fill="rgb(204,252,82)" stroke="rgb(204,252,82)" stroke-width="1" opacity="1" d="M 1495.5 1093 L 1498 1093.5 L 1495.5 1094 L 1495.5 1093 Z " /><path fill="rgb(204,252,82)" stroke="rgb(204,252,82)" stroke-width="1" opacity="1" d="M 1377.5 1094 L 1380 1094.5 L 1377.5 1095 L 1377.5 1094 Z " /><path fill="rgb(204,252,82)" stroke="rgb(204,252,82)" stroke-width="1" opacity="1" d="M 1500.5 1094 L 1503 1094.5 L 1500.5 1095 L 1500.5 1094 Z " /><path fill="rgb(204,252,82)" stroke="rgb(204,252,82)" stroke-width="1" opacity="1" d="M 1528.5 1094 L 1532 1094.5 L 1528.5 1095 L 1528.5 1094 Z " /><path fill="rgb(204,252,82)" stroke="rgb(204,252,82)" stroke-width="1" opacity="1" d="M 1195.5 1095 L 1203 1095.5 L 1195.5 1096 L 1195.5 1095 Z " /><path fill="rgb(204,252,82)" stroke="rgb(204,252,82)" stroke-width="1" opacity="1" d="M 1204.5 1095 L 1211 1095.5 L 1204.5 1096 L 1204.5 1095 Z " /><path fill="rgb(204,252,82)" stroke="rgb(204,252,82)" stroke-width="1" opacity="1" d="M 1355.5 1095 L 1372 1095.5 L 1355.5 1096 L 1355.5 1095 Z " /><path fill="rgb(204,252,82)" stroke="rgb(204,252,82)" stroke-width="1" opacity="1" d="M 1506.5 1095 L 1515 1095.5 L 1506.5 1096 L 1506.5 1095 Z " /><path fill="rgb(204,252,82)" stroke="rgb(204,252,82)" stroke-width="1" opacity="1" d="M 1521.5 1095 L 1525 1095.5 L 1521.5 1096 L 1521.5 1095 Z " /><path fill="rgb(204,252,82)" stroke="rgb(204,252,82)" stroke-width="1" opacity="1" d="M 369.5 1098 L 370 1101.5 L 369 1101.5 L 369.5 1098 Z " /><path fill="rgb(204,252,82)" stroke="rgb(204,252,82)" stroke-width="1" opacity="1" d="M 603.5 1100 L 604 1103.5 L 603 1103.5 L 603.5 1100 Z " /><path fill="rgb(204,252,82)" stroke="rgb(204,252,82)" stroke-width="1" opacity="1" d="M 368.5 1106 L 369 1117.5 L 368 1117.5 L 368.5 1106 Z " /><path fill="rgb(204,252,82)" stroke="rgb(204,252,82)" stroke-width="1" opacity="1" d="M 604.5 1109 L 605 1117.5 L 604 1117.5 L 604.5 1109 Z " /><path fill="rgb(204,252,82)" stroke="rgb(204,252,82)" stroke-width="1" opacity="1" d="M 1277.5 1120 L 1278 1122.5 L 1277 1122.5 L 1277.5 1120 Z " /><path fill="rgb(204,252,82)" stroke="rgb(204,252,82)" stroke-width="1" opacity="1" d="M 1188.5 1123 L 1189 1148.5 L 1188 1148.5 L 1188.5 1123 Z " /><path fill="rgb(204,252,82)" stroke="rgb(204,252,82)" stroke-width="1" opacity="1" d="M 1274.5 1132 L 1275 1133.5 L 1267.5 1143 L 1271 1138.5 L 1274.5 1132 Z " /><path fill="rgb(204,252,82)" stroke="rgb(204,252,82)" stroke-width="1" opacity="1" d="M 1265.5 1143 L 1264.5 1145 L 1265.5 1143 Z " /><path fill="rgb(204,252,82)" stroke="rgb(204,252,82)" stroke-width="1" opacity="1" d="M 1249.5 1148 L 1253 1148.5 L 1249.5 1149 L 1249.5 1148 Z " /><path fill="rgb(205,253,83)" stroke="rgb(205,253,83)" stroke-width="1" opacity="1" d="M 0 0 L 2000 0 L 2000 2000 L 0 2000 L 0 0 Z M 393 881 L 385 883 L 377 888 Q 371 894 368 903 L 368 982 L 372 992 Q 378 1000 390 1003 L 456 1004 Q 426 1011 407 1030 Q 393 1042 384 1058 Q 376 1070 372 1086 L 368 1107 L 368 1118 L 369 1118 L 605 1118 L 604 1101 L 596 1072 Q 589 1056 579 1044 Q 557 1015 517 1004 L 584 1003 L 598 996 L 605 982 L 605 903 L 599 891 L 593 885 L 581 881 L 393 881 Z M 663 910 L 663 922 L 664 923 L 663 926 L 663 1074 L 663 1076 L 664 1081 L 663 1082 L 663 1092 L 665 1093 L 692 1093 L 692 1035 L 691 1034 L 692 927 L 741 1092 L 742 1093 L 782 1093 L 832 926 L 833 926 L 833 937 L 832 938 L 832 1039 L 831 1040 L 831 1093 L 859 1093 L 859 911 L 859 910 L 813 910 L 811 912 L 763 1075 Q 764 1079 761 1078 L 712 912 L 711 910 L 663 910 Z M 896 910 L 896 934 L 921 934 L 921 1069 L 921 1069 L 896 1069 L 896 1093 L 897 1093 L 973 1093 L 973 1069 L 949 1069 L 949 935 L 950 934 L 973 934 L 973 911 L 973 910 L 896 910 Z M 1357 959 L 1339 963 L 1323 972 Q 1314 979 1308 990 L 1302 1005 L 1300 1016 L 1300 1040 Q 1303 1041 1301 1047 L 1305 1060 L 1313 1074 L 1330 1088 L 1345 1094 L 1350 1094 L 1356 1096 L 1372 1096 L 1373 1095 L 1386 1094 Q 1399 1090 1409 1083 Q 1419 1074 1425 1061 L 1429 1048 L 1430 1033 L 1431 1032 Q 1431 996 1414 978 Q 1405 967 1390 962 L 1375 959 L 1357 959 Z M 1507 959 L 1489 963 L 1481 967 L 1467 977 L 1455 997 L 1450 1019 Q 1448 1056 1465 1076 Q 1474 1087 1489 1092 L 1507 1096 L 1532 1095 L 1546 1091 L 1558 1084 Q 1568 1076 1574 1064 L 1579 1050 L 1580 1039 L 1581 1038 Q 1583 999 1566 980 Q 1558 969 1546 964 L 1531 960 L 1507 959 Z M 1006 960 L 1006 1093 L 1007 1093 L 1034 1093 L 1034 1030 L 1035 1029 L 1035 1018 L 1039 1004 L 1044 996 L 1055 987 L 1068 984 L 1077 984 L 1090 989 L 1098 1001 L 1102 1018 L 1102 1093 L 1129 1093 L 1129 1010 L 1125 989 L 1121 980 L 1115 971 L 1103 963 L 1093 960 L 1070 960 L 1065 961 L 1049 969 Q 1039 977 1035 989 L 1030 964 L 1030 960 L 1006 960 Z M 1193 960 Q 1175 963 1165 974 Q 1166 976 1164 975 L 1153 992 L 1149 1005 L 1148 1017 L 1147 1018 L 1147 1038 L 1148 1039 L 1148 1046 L 1150 1056 L 1160 1077 Q 1167 1085 1178 1091 L 1196 1096 Q 1223 1098 1237 1085 Q 1245 1079 1249 1069 L 1250 1069 L 1250 1123 L 1188 1123 L 1188 1149 L 1253 1149 L 1261 1147 L 1268 1143 L 1275 1134 L 1279 1115 L 1279 961 L 1279 960 L 1250 960 L 1250 989 L 1240 974 Q 1227 956 1193 960 Z " /><path fill="rgb(205,253,83)" stroke="rgb(205,253,83)" stroke-width="1" opacity="1" d="M 1365.5 981 L 1366.5 982 L 1374.5 982 L 1384.5 985 L 1395 994.5 L 1400 1003.5 L 1403 1015.5 L 1403 1038.5 Q 1400.4 1041.4 1401 1047.5 L 1397 1056.5 L 1388.5 1066 L 1377.5 1071 L 1358.5 1072 L 1345.5 1068 L 1335 1058.5 L 1329 1045.5 L 1327 1035.5 L 1327 1018.5 L 1331 1002.5 L 1337 992 L 1351.5 983 L 1364.5 982 L 1365.5 981 Z " /><path fill="rgb(205,253,83)" stroke="rgb(205,253,83)" stroke-width="1" opacity="1" d="M 1515.5 981 L 1532.5 984 L 1544 992.5 L 1552 1008.5 L 1553 1019.5 L 1554 1020.5 L 1554 1031.5 L 1553 1032.5 L 1552 1044.5 L 1549 1053.5 L 1537.5 1067 L 1531.5 1070 L 1522.5 1072 L 1508.5 1072 L 1497.5 1069 L 1488 1061.5 L 1480 1047.5 L 1478 1039.5 L 1477 1021.5 L 1480 1005.5 Q 1484 994.5 1492.5 988 L 1502.5 983 L 1514.5 982 L 1515.5 981 Z " /><path fill="rgb(205,253,83)" stroke="rgb(205,253,83)" stroke-width="1" opacity="1" d="M 1204.5 985 Q 1232.5 982.5 1242 998.5 L 1248 1011.5 L 1250 1028.5 L 1249 1029.5 L 1249 1039.5 L 1246 1049.5 Q 1242.2 1059.2 1234.5 1065 L 1221.5 1071 L 1207.5 1072 L 1194.5 1069 L 1183 1059.5 Q 1177.3 1051.7 1175 1040.5 L 1174 1022.5 L 1176 1011.5 L 1180 1001.5 L 1190.5 990 L 1204.5 985 Z " /></svg>